<mxfile host="65bd71144e">
    <diagram id="z6JKiNqPjKBfp4Taf591" name="����� �����">
        <mxGraphModel dx="832" dy="229" grid="1" gridSize="10" guides="1" tooltips="1" connect="1" arrows="1" fold="1" page="1" pageScale="1" pageWidth="1920" pageHeight="1200" math="0" shadow="0">
            <root>
                <mxCell id="0"/>
                <mxCell id="1" parent="0"/>
                <mxCell id="4" style="edgeStyle=none;html=1;entryX=0;entryY=0.5;entryDx=0;entryDy=0;" parent="1" source="2" target="3" edge="1">
                    <mxGeometry relative="1" as="geometry"/>
                </mxCell>
                <mxCell id="2" value="client&lt;br&gt;" style="shape=umlActor;verticalLabelPosition=bottom;verticalAlign=top;html=1;outlineConnect=0;" parent="1" vertex="1">
                    <mxGeometry x="160" y="280" width="30" height="60" as="geometry"/>
                </mxCell>
                <mxCell id="7" style="edgeStyle=none;html=1;entryX=0;entryY=0.5;entryDx=0;entryDy=0;" parent="1" source="3" target="6" edge="1">
                    <mxGeometry relative="1" as="geometry"/>
                </mxCell>
                <mxCell id="3" value="ЖКХ" style="swimlane;whiteSpace=wrap;html=1;" parent="1" vertex="1">
                    <mxGeometry x="330" y="210" width="200" height="200" as="geometry"/>
                </mxCell>
                <mxCell id="9" style="edgeStyle=none;html=1;" parent="1" source="6" target="8" edge="1">
                    <mxGeometry relative="1" as="geometry"/>
                </mxCell>
                <mxCell id="6" value="Black Box" style="swimlane;whiteSpace=wrap;html=1;" parent="1" vertex="1">
                    <mxGeometry x="650" y="260" width="230" height="100" as="geometry"/>
                </mxCell>
                <mxCell id="8" value="DB" style="shape=cylinder3;whiteSpace=wrap;html=1;boundedLbl=1;backgroundOutline=1;size=15;" parent="1" vertex="1">
                    <mxGeometry x="1020" y="220" width="130" height="180" as="geometry"/>
                </mxCell>
                <mxCell id="11" style="edgeStyle=none;html=1;entryX=0.5;entryY=0;entryDx=0;entryDy=0;" parent="1" source="10" target="6" edge="1">
                    <mxGeometry relative="1" as="geometry"/>
                </mxCell>
                <mxCell id="12" style="edgeStyle=none;html=1;entryX=0.5;entryY=0;entryDx=0;entryDy=0;entryPerimeter=0;" parent="1" source="10" target="8" edge="1">
                    <mxGeometry relative="1" as="geometry"/>
                </mxCell>
                <mxCell id="13" style="edgeStyle=none;html=1;entryX=0.5;entryY=0;entryDx=0;entryDy=0;" parent="1" source="10" target="3" edge="1">
                    <mxGeometry relative="1" as="geometry"/>
                </mxCell>
                <mxCell id="10" value="Actor" style="shape=umlActor;verticalLabelPosition=bottom;verticalAlign=top;html=1;outlineConnect=0;" parent="1" vertex="1">
                    <mxGeometry x="750" y="60" width="30" height="60" as="geometry"/>
                </mxCell>
            </root>
        </mxGraphModel>
    </diagram>
    <diagram id="p8sGrNwUcx77hU89wz37" name="Black Box">
        <mxGraphModel dx="832" dy="629" grid="1" gridSize="10" guides="1" tooltips="1" connect="1" arrows="1" fold="1" page="0" pageScale="1" pageWidth="1920" pageHeight="1200" math="0" shadow="0">
            <root>
                <mxCell id="0"/>
                <mxCell id="1" parent="0"/>
                <mxCell id="OMXmORCDV6tAThFMvZb1-14" style="edgeStyle=none;html=1;entryX=0;entryY=0.5;entryDx=0;entryDy=0;" parent="1" source="OMXmORCDV6tAThFMvZb1-1" target="OMXmORCDV6tAThFMvZb1-11" edge="1">
                    <mxGeometry relative="1" as="geometry"/>
                </mxCell>
                <mxCell id="x8IGzeiQERaqCFFXGE3a-33" style="edgeStyle=none;html=1;entryX=0;entryY=0.5;entryDx=0;entryDy=0;" parent="1" source="OMXmORCDV6tAThFMvZb1-1" target="x8IGzeiQERaqCFFXGE3a-30" edge="1">
                    <mxGeometry relative="1" as="geometry"/>
                </mxCell>
                <mxCell id="OMXmORCDV6tAThFMvZb1-1" value="client&lt;br&gt;" style="shape=umlActor;verticalLabelPosition=bottom;verticalAlign=top;html=1;outlineConnect=0;" parent="1" vertex="1">
                    <mxGeometry x="50" y="240" width="30" height="60" as="geometry"/>
                </mxCell>
                <mxCell id="OMXmORCDV6tAThFMvZb1-10" value="Authorization" style="swimlane;fontStyle=1;align=center;verticalAlign=top;childLayout=stackLayout;horizontal=1;startSize=26;horizontalStack=0;resizeParent=1;resizeParentMax=0;resizeLast=0;collapsible=1;marginBottom=0;" parent="1" vertex="1">
                    <mxGeometry x="260" y="76" width="200" height="86" as="geometry"/>
                </mxCell>
                <mxCell id="OMXmORCDV6tAThFMvZb1-11" value="+ auth(login, password) -&gt; session" style="text;strokeColor=none;fillColor=none;align=left;verticalAlign=top;spacingLeft=4;spacingRight=4;overflow=hidden;rotatable=0;points=[[0,0.5],[1,0.5]];portConstraint=eastwest;" parent="OMXmORCDV6tAThFMvZb1-10" vertex="1">
                    <mxGeometry y="26" width="200" height="26" as="geometry"/>
                </mxCell>
                <mxCell id="OMXmORCDV6tAThFMvZb1-12" value="" style="line;strokeWidth=1;fillColor=none;align=left;verticalAlign=middle;spacingTop=-1;spacingLeft=3;spacingRight=3;rotatable=0;labelPosition=right;points=[];portConstraint=eastwest;strokeColor=inherit;" parent="OMXmORCDV6tAThFMvZb1-10" vertex="1">
                    <mxGeometry y="52" width="200" height="8" as="geometry"/>
                </mxCell>
                <mxCell id="OMXmORCDV6tAThFMvZb1-13" value="+Не реализовано" style="text;strokeColor=none;fillColor=none;align=left;verticalAlign=top;spacingLeft=4;spacingRight=4;overflow=hidden;rotatable=0;points=[[0,0.5],[1,0.5]];portConstraint=eastwest;" parent="OMXmORCDV6tAThFMvZb1-10" vertex="1">
                    <mxGeometry y="60" width="200" height="26" as="geometry"/>
                </mxCell>
                <mxCell id="OMXmORCDV6tAThFMvZb1-15" value="Exit from account" style="swimlane;fontStyle=1;align=center;verticalAlign=top;childLayout=stackLayout;horizontal=1;startSize=26;horizontalStack=0;resizeParent=1;resizeParentMax=0;resizeLast=0;collapsible=1;marginBottom=0;" parent="1" vertex="1">
                    <mxGeometry x="560" y="-190" width="200" height="86" as="geometry"/>
                </mxCell>
                <mxCell id="OMXmORCDV6tAThFMvZb1-16" value="+ logout() -&gt; sesstion" style="text;strokeColor=none;fillColor=none;align=left;verticalAlign=top;spacingLeft=4;spacingRight=4;overflow=hidden;rotatable=0;points=[[0,0.5],[1,0.5]];portConstraint=eastwest;" parent="OMXmORCDV6tAThFMvZb1-15" vertex="1">
                    <mxGeometry y="26" width="200" height="26" as="geometry"/>
                </mxCell>
                <mxCell id="OMXmORCDV6tAThFMvZb1-17" value="" style="line;strokeWidth=1;fillColor=none;align=left;verticalAlign=middle;spacingTop=-1;spacingLeft=3;spacingRight=3;rotatable=0;labelPosition=right;points=[];portConstraint=eastwest;strokeColor=inherit;" parent="OMXmORCDV6tAThFMvZb1-15" vertex="1">
                    <mxGeometry y="52" width="200" height="8" as="geometry"/>
                </mxCell>
                <mxCell id="OMXmORCDV6tAThFMvZb1-18" value="+Не реализовано" style="text;strokeColor=none;fillColor=none;align=left;verticalAlign=top;spacingLeft=4;spacingRight=4;overflow=hidden;rotatable=0;points=[[0,0.5],[1,0.5]];portConstraint=eastwest;" parent="OMXmORCDV6tAThFMvZb1-15" vertex="1">
                    <mxGeometry y="60" width="200" height="26" as="geometry"/>
                </mxCell>
                <mxCell id="x8IGzeiQERaqCFFXGE3a-1" style="edgeStyle=none;html=1;entryX=0;entryY=0.5;entryDx=0;entryDy=0;exitX=1;exitY=0.5;exitDx=0;exitDy=0;" parent="1" source="OMXmORCDV6tAThFMvZb1-11" target="OMXmORCDV6tAThFMvZb1-16" edge="1">
                    <mxGeometry relative="1" as="geometry"/>
                </mxCell>
                <mxCell id="x8IGzeiQERaqCFFXGE3a-2" value="Get info account" style="swimlane;fontStyle=1;align=center;verticalAlign=top;childLayout=stackLayout;horizontal=1;startSize=26;horizontalStack=0;resizeParent=1;resizeParentMax=0;resizeLast=0;collapsible=1;marginBottom=0;" parent="1" vertex="1">
                    <mxGeometry x="560" y="-76" width="200" height="86" as="geometry"/>
                </mxCell>
                <mxCell id="x8IGzeiQERaqCFFXGE3a-3" value="+ profile(id) -&gt; page" style="text;strokeColor=none;fillColor=none;align=left;verticalAlign=top;spacingLeft=4;spacingRight=4;overflow=hidden;rotatable=0;points=[[0,0.5],[1,0.5]];portConstraint=eastwest;" parent="x8IGzeiQERaqCFFXGE3a-2" vertex="1">
                    <mxGeometry y="26" width="200" height="26" as="geometry"/>
                </mxCell>
                <mxCell id="x8IGzeiQERaqCFFXGE3a-4" value="" style="line;strokeWidth=1;fillColor=none;align=left;verticalAlign=middle;spacingTop=-1;spacingLeft=3;spacingRight=3;rotatable=0;labelPosition=right;points=[];portConstraint=eastwest;strokeColor=inherit;" parent="x8IGzeiQERaqCFFXGE3a-2" vertex="1">
                    <mxGeometry y="52" width="200" height="8" as="geometry"/>
                </mxCell>
                <mxCell id="x8IGzeiQERaqCFFXGE3a-5" value="+Не реализовано" style="text;strokeColor=none;fillColor=none;align=left;verticalAlign=top;spacingLeft=4;spacingRight=4;overflow=hidden;rotatable=0;points=[[0,0.5],[1,0.5]];portConstraint=eastwest;" parent="x8IGzeiQERaqCFFXGE3a-2" vertex="1">
                    <mxGeometry y="60" width="200" height="26" as="geometry"/>
                </mxCell>
                <mxCell id="x8IGzeiQERaqCFFXGE3a-6" style="edgeStyle=none;html=1;entryX=0;entryY=0.5;entryDx=0;entryDy=0;exitX=1;exitY=0.5;exitDx=0;exitDy=0;" parent="1" source="OMXmORCDV6tAThFMvZb1-11" target="x8IGzeiQERaqCFFXGE3a-3" edge="1">
                    <mxGeometry relative="1" as="geometry"/>
                </mxCell>
                <mxCell id="x8IGzeiQERaqCFFXGE3a-7" value="Change account data" style="swimlane;fontStyle=1;align=center;verticalAlign=top;childLayout=stackLayout;horizontal=1;startSize=26;horizontalStack=0;resizeParent=1;resizeParentMax=0;resizeLast=0;collapsible=1;marginBottom=0;" parent="1" vertex="1">
                    <mxGeometry x="560" y="90" width="200" height="86" as="geometry"/>
                </mxCell>
                <mxCell id="x8IGzeiQERaqCFFXGE3a-8" value="+ change(id) -&gt; data" style="text;strokeColor=none;fillColor=none;align=left;verticalAlign=top;spacingLeft=4;spacingRight=4;overflow=hidden;rotatable=0;points=[[0,0.5],[1,0.5]];portConstraint=eastwest;" parent="x8IGzeiQERaqCFFXGE3a-7" vertex="1">
                    <mxGeometry y="26" width="200" height="26" as="geometry"/>
                </mxCell>
                <mxCell id="x8IGzeiQERaqCFFXGE3a-9" value="" style="line;strokeWidth=1;fillColor=none;align=left;verticalAlign=middle;spacingTop=-1;spacingLeft=3;spacingRight=3;rotatable=0;labelPosition=right;points=[];portConstraint=eastwest;strokeColor=inherit;" parent="x8IGzeiQERaqCFFXGE3a-7" vertex="1">
                    <mxGeometry y="52" width="200" height="8" as="geometry"/>
                </mxCell>
                <mxCell id="x8IGzeiQERaqCFFXGE3a-10" value="+Не реализовано" style="text;strokeColor=none;fillColor=none;align=left;verticalAlign=top;spacingLeft=4;spacingRight=4;overflow=hidden;rotatable=0;points=[[0,0.5],[1,0.5]];portConstraint=eastwest;" parent="x8IGzeiQERaqCFFXGE3a-7" vertex="1">
                    <mxGeometry y="60" width="200" height="26" as="geometry"/>
                </mxCell>
                <mxCell id="x8IGzeiQERaqCFFXGE3a-11" style="edgeStyle=none;html=1;exitX=1;exitY=0.5;exitDx=0;exitDy=0;entryX=0;entryY=0.5;entryDx=0;entryDy=0;" parent="1" source="OMXmORCDV6tAThFMvZb1-11" target="x8IGzeiQERaqCFFXGE3a-7" edge="1">
                    <mxGeometry relative="1" as="geometry"/>
                </mxCell>
                <mxCell id="x8IGzeiQERaqCFFXGE3a-14" value="Update account data" style="swimlane;fontStyle=1;align=center;verticalAlign=top;childLayout=stackLayout;horizontal=1;startSize=26;horizontalStack=0;resizeParent=1;resizeParentMax=0;resizeLast=0;collapsible=1;marginBottom=0;" parent="1" vertex="1">
                    <mxGeometry x="860" y="-20" width="200" height="86" as="geometry"/>
                </mxCell>
                <mxCell id="x8IGzeiQERaqCFFXGE3a-15" value="+ update(id) -&gt; data" style="text;strokeColor=none;fillColor=none;align=left;verticalAlign=top;spacingLeft=4;spacingRight=4;overflow=hidden;rotatable=0;points=[[0,0.5],[1,0.5]];portConstraint=eastwest;" parent="x8IGzeiQERaqCFFXGE3a-14" vertex="1">
                    <mxGeometry y="26" width="200" height="26" as="geometry"/>
                </mxCell>
                <mxCell id="x8IGzeiQERaqCFFXGE3a-16" value="" style="line;strokeWidth=1;fillColor=none;align=left;verticalAlign=middle;spacingTop=-1;spacingLeft=3;spacingRight=3;rotatable=0;labelPosition=right;points=[];portConstraint=eastwest;strokeColor=inherit;" parent="x8IGzeiQERaqCFFXGE3a-14" vertex="1">
                    <mxGeometry y="52" width="200" height="8" as="geometry"/>
                </mxCell>
                <mxCell id="x8IGzeiQERaqCFFXGE3a-17" value="+Не реализовано" style="text;strokeColor=none;fillColor=none;align=left;verticalAlign=top;spacingLeft=4;spacingRight=4;overflow=hidden;rotatable=0;points=[[0,0.5],[1,0.5]];portConstraint=eastwest;" parent="x8IGzeiQERaqCFFXGE3a-14" vertex="1">
                    <mxGeometry y="60" width="200" height="26" as="geometry"/>
                </mxCell>
                <mxCell id="x8IGzeiQERaqCFFXGE3a-18" value="Create account data" style="swimlane;fontStyle=1;align=center;verticalAlign=top;childLayout=stackLayout;horizontal=1;startSize=26;horizontalStack=0;resizeParent=1;resizeParentMax=0;resizeLast=0;collapsible=1;marginBottom=0;" parent="1" vertex="1">
                    <mxGeometry x="860" y="90" width="200" height="86" as="geometry"/>
                </mxCell>
                <mxCell id="x8IGzeiQERaqCFFXGE3a-19" value="+ create(id) -&gt; data" style="text;strokeColor=none;fillColor=none;align=left;verticalAlign=top;spacingLeft=4;spacingRight=4;overflow=hidden;rotatable=0;points=[[0,0.5],[1,0.5]];portConstraint=eastwest;" parent="x8IGzeiQERaqCFFXGE3a-18" vertex="1">
                    <mxGeometry y="26" width="200" height="26" as="geometry"/>
                </mxCell>
                <mxCell id="x8IGzeiQERaqCFFXGE3a-20" value="" style="line;strokeWidth=1;fillColor=none;align=left;verticalAlign=middle;spacingTop=-1;spacingLeft=3;spacingRight=3;rotatable=0;labelPosition=right;points=[];portConstraint=eastwest;strokeColor=inherit;" parent="x8IGzeiQERaqCFFXGE3a-18" vertex="1">
                    <mxGeometry y="52" width="200" height="8" as="geometry"/>
                </mxCell>
                <mxCell id="x8IGzeiQERaqCFFXGE3a-21" value="+Не реализовано" style="text;strokeColor=none;fillColor=none;align=left;verticalAlign=top;spacingLeft=4;spacingRight=4;overflow=hidden;rotatable=0;points=[[0,0.5],[1,0.5]];portConstraint=eastwest;" parent="x8IGzeiQERaqCFFXGE3a-18" vertex="1">
                    <mxGeometry y="60" width="200" height="26" as="geometry"/>
                </mxCell>
                <mxCell id="x8IGzeiQERaqCFFXGE3a-22" value="Delete account data" style="swimlane;fontStyle=1;align=center;verticalAlign=top;childLayout=stackLayout;horizontal=1;startSize=26;horizontalStack=0;resizeParent=1;resizeParentMax=0;resizeLast=0;collapsible=1;marginBottom=0;" parent="1" vertex="1">
                    <mxGeometry x="860" y="190" width="200" height="86" as="geometry"/>
                </mxCell>
                <mxCell id="x8IGzeiQERaqCFFXGE3a-23" value="+ delete(id) -&gt; data" style="text;strokeColor=none;fillColor=none;align=left;verticalAlign=top;spacingLeft=4;spacingRight=4;overflow=hidden;rotatable=0;points=[[0,0.5],[1,0.5]];portConstraint=eastwest;" parent="x8IGzeiQERaqCFFXGE3a-22" vertex="1">
                    <mxGeometry y="26" width="200" height="26" as="geometry"/>
                </mxCell>
                <mxCell id="x8IGzeiQERaqCFFXGE3a-24" value="" style="line;strokeWidth=1;fillColor=none;align=left;verticalAlign=middle;spacingTop=-1;spacingLeft=3;spacingRight=3;rotatable=0;labelPosition=right;points=[];portConstraint=eastwest;strokeColor=inherit;" parent="x8IGzeiQERaqCFFXGE3a-22" vertex="1">
                    <mxGeometry y="52" width="200" height="8" as="geometry"/>
                </mxCell>
                <mxCell id="x8IGzeiQERaqCFFXGE3a-25" value="+Не реализовано" style="text;strokeColor=none;fillColor=none;align=left;verticalAlign=top;spacingLeft=4;spacingRight=4;overflow=hidden;rotatable=0;points=[[0,0.5],[1,0.5]];portConstraint=eastwest;" parent="x8IGzeiQERaqCFFXGE3a-22" vertex="1">
                    <mxGeometry y="60" width="200" height="26" as="geometry"/>
                </mxCell>
                <mxCell id="x8IGzeiQERaqCFFXGE3a-26" style="edgeStyle=none;html=1;entryX=0;entryY=0.5;entryDx=0;entryDy=0;exitX=1;exitY=0.5;exitDx=0;exitDy=0;" parent="1" source="x8IGzeiQERaqCFFXGE3a-8" target="x8IGzeiQERaqCFFXGE3a-15" edge="1">
                    <mxGeometry relative="1" as="geometry">
                        <mxPoint x="790" y="130" as="sourcePoint"/>
                    </mxGeometry>
                </mxCell>
                <mxCell id="x8IGzeiQERaqCFFXGE3a-27" style="edgeStyle=none;html=1;exitX=1;exitY=0.5;exitDx=0;exitDy=0;entryX=0;entryY=0.5;entryDx=0;entryDy=0;" parent="1" source="x8IGzeiQERaqCFFXGE3a-8" target="x8IGzeiQERaqCFFXGE3a-19" edge="1">
                    <mxGeometry relative="1" as="geometry"/>
                </mxCell>
                <mxCell id="x8IGzeiQERaqCFFXGE3a-28" style="edgeStyle=none;html=1;entryX=0;entryY=0.5;entryDx=0;entryDy=0;exitX=1;exitY=0.5;exitDx=0;exitDy=0;" parent="1" source="x8IGzeiQERaqCFFXGE3a-8" target="x8IGzeiQERaqCFFXGE3a-23" edge="1">
                    <mxGeometry relative="1" as="geometry"/>
                </mxCell>
                <mxCell id="x8IGzeiQERaqCFFXGE3a-29" value="Registration" style="swimlane;fontStyle=1;align=center;verticalAlign=top;childLayout=stackLayout;horizontal=1;startSize=26;horizontalStack=0;resizeParent=1;resizeParentMax=0;resizeLast=0;collapsible=1;marginBottom=0;" parent="1" vertex="1">
                    <mxGeometry x="90" y="420" width="200" height="86" as="geometry"/>
                </mxCell>
                <mxCell id="x8IGzeiQERaqCFFXGE3a-30" value="+ reg() -&gt; session" style="text;strokeColor=none;fillColor=none;align=left;verticalAlign=top;spacingLeft=4;spacingRight=4;overflow=hidden;rotatable=0;points=[[0,0.5],[1,0.5]];portConstraint=eastwest;" parent="x8IGzeiQERaqCFFXGE3a-29" vertex="1">
                    <mxGeometry y="26" width="200" height="26" as="geometry"/>
                </mxCell>
                <mxCell id="x8IGzeiQERaqCFFXGE3a-31" value="" style="line;strokeWidth=1;fillColor=none;align=left;verticalAlign=middle;spacingTop=-1;spacingLeft=3;spacingRight=3;rotatable=0;labelPosition=right;points=[];portConstraint=eastwest;strokeColor=inherit;" parent="x8IGzeiQERaqCFFXGE3a-29" vertex="1">
                    <mxGeometry y="52" width="200" height="8" as="geometry"/>
                </mxCell>
                <mxCell id="x8IGzeiQERaqCFFXGE3a-32" value="+Не реализовано" style="text;strokeColor=none;fillColor=none;align=left;verticalAlign=top;spacingLeft=4;spacingRight=4;overflow=hidden;rotatable=0;points=[[0,0.5],[1,0.5]];portConstraint=eastwest;" parent="x8IGzeiQERaqCFFXGE3a-29" vertex="1">
                    <mxGeometry y="60" width="200" height="26" as="geometry"/>
                </mxCell>
                <mxCell id="x8IGzeiQERaqCFFXGE3a-34" value="Get registration data" style="swimlane;fontStyle=1;align=center;verticalAlign=top;childLayout=stackLayout;horizontal=1;startSize=26;horizontalStack=0;resizeParent=1;resizeParentMax=0;resizeLast=0;collapsible=1;marginBottom=0;" parent="1" vertex="1">
                    <mxGeometry x="380" y="320" width="210" height="86" as="geometry"/>
                </mxCell>
                <mxCell id="x8IGzeiQERaqCFFXGE3a-35" value="+ reg_step(login, password) -&gt; query" style="text;strokeColor=none;fillColor=none;align=left;verticalAlign=top;spacingLeft=4;spacingRight=4;overflow=hidden;rotatable=0;points=[[0,0.5],[1,0.5]];portConstraint=eastwest;" parent="x8IGzeiQERaqCFFXGE3a-34" vertex="1">
                    <mxGeometry y="26" width="210" height="26" as="geometry"/>
                </mxCell>
                <mxCell id="x8IGzeiQERaqCFFXGE3a-36" value="" style="line;strokeWidth=1;fillColor=none;align=left;verticalAlign=middle;spacingTop=-1;spacingLeft=3;spacingRight=3;rotatable=0;labelPosition=right;points=[];portConstraint=eastwest;strokeColor=inherit;" parent="x8IGzeiQERaqCFFXGE3a-34" vertex="1">
                    <mxGeometry y="52" width="210" height="8" as="geometry"/>
                </mxCell>
                <mxCell id="x8IGzeiQERaqCFFXGE3a-37" value="+Не реализовано" style="text;strokeColor=none;fillColor=none;align=left;verticalAlign=top;spacingLeft=4;spacingRight=4;overflow=hidden;rotatable=0;points=[[0,0.5],[1,0.5]];portConstraint=eastwest;" parent="x8IGzeiQERaqCFFXGE3a-34" vertex="1">
                    <mxGeometry y="60" width="210" height="26" as="geometry"/>
                </mxCell>
                <mxCell id="x8IGzeiQERaqCFFXGE3a-38" value="Get registration data" style="swimlane;fontStyle=1;align=center;verticalAlign=top;childLayout=stackLayout;horizontal=1;startSize=26;horizontalStack=0;resizeParent=1;resizeParentMax=0;resizeLast=0;collapsible=1;marginBottom=0;" parent="1" vertex="1">
                    <mxGeometry x="380" y="424" width="320" height="86" as="geometry"/>
                </mxCell>
                <mxCell id="x8IGzeiQERaqCFFXGE3a-39" value="+ reg_step(name, surname, patronymic: None) -&gt; query" style="text;strokeColor=none;fillColor=none;align=left;verticalAlign=top;spacingLeft=4;spacingRight=4;overflow=hidden;rotatable=0;points=[[0,0.5],[1,0.5]];portConstraint=eastwest;" parent="x8IGzeiQERaqCFFXGE3a-38" vertex="1">
                    <mxGeometry y="26" width="320" height="26" as="geometry"/>
                </mxCell>
                <mxCell id="x8IGzeiQERaqCFFXGE3a-40" value="" style="line;strokeWidth=1;fillColor=none;align=left;verticalAlign=middle;spacingTop=-1;spacingLeft=3;spacingRight=3;rotatable=0;labelPosition=right;points=[];portConstraint=eastwest;strokeColor=inherit;" parent="x8IGzeiQERaqCFFXGE3a-38" vertex="1">
                    <mxGeometry y="52" width="320" height="8" as="geometry"/>
                </mxCell>
                <mxCell id="x8IGzeiQERaqCFFXGE3a-41" value="+Не реализовано" style="text;strokeColor=none;fillColor=none;align=left;verticalAlign=top;spacingLeft=4;spacingRight=4;overflow=hidden;rotatable=0;points=[[0,0.5],[1,0.5]];portConstraint=eastwest;" parent="x8IGzeiQERaqCFFXGE3a-38" vertex="1">
                    <mxGeometry y="60" width="320" height="26" as="geometry"/>
                </mxCell>
                <mxCell id="x8IGzeiQERaqCFFXGE3a-42" value="Get registration data" style="swimlane;fontStyle=1;align=center;verticalAlign=top;childLayout=stackLayout;horizontal=1;startSize=26;horizontalStack=0;resizeParent=1;resizeParentMax=0;resizeLast=0;collapsible=1;marginBottom=0;" parent="1" vertex="1">
                    <mxGeometry x="380" y="534" width="230" height="184" as="geometry"/>
                </mxCell>
                <mxCell id="x8IGzeiQERaqCFFXGE3a-43" value="+ reg_step(&#10;region,&#10;city,&#10;street,&#10;home,&#10;flat,&#10;entrance&#10;) -&gt; query" style="text;strokeColor=none;fillColor=none;align=left;verticalAlign=top;spacingLeft=4;spacingRight=4;overflow=hidden;rotatable=0;points=[[0,0.5],[1,0.5]];portConstraint=eastwest;" parent="x8IGzeiQERaqCFFXGE3a-42" vertex="1">
                    <mxGeometry y="26" width="230" height="124" as="geometry"/>
                </mxCell>
                <mxCell id="x8IGzeiQERaqCFFXGE3a-44" value="" style="line;strokeWidth=1;fillColor=none;align=left;verticalAlign=middle;spacingTop=-1;spacingLeft=3;spacingRight=3;rotatable=0;labelPosition=right;points=[];portConstraint=eastwest;strokeColor=inherit;" parent="x8IGzeiQERaqCFFXGE3a-42" vertex="1">
                    <mxGeometry y="150" width="230" height="8" as="geometry"/>
                </mxCell>
                <mxCell id="x8IGzeiQERaqCFFXGE3a-45" value="+Не реализовано" style="text;strokeColor=none;fillColor=none;align=left;verticalAlign=top;spacingLeft=4;spacingRight=4;overflow=hidden;rotatable=0;points=[[0,0.5],[1,0.5]];portConstraint=eastwest;" parent="x8IGzeiQERaqCFFXGE3a-42" vertex="1">
                    <mxGeometry y="158" width="230" height="26" as="geometry"/>
                </mxCell>
                <mxCell id="x8IGzeiQERaqCFFXGE3a-46" style="edgeStyle=none;html=1;entryX=0;entryY=0.5;entryDx=0;entryDy=0;exitX=1;exitY=0.5;exitDx=0;exitDy=0;" parent="1" source="x8IGzeiQERaqCFFXGE3a-30" target="x8IGzeiQERaqCFFXGE3a-35" edge="1">
                    <mxGeometry relative="1" as="geometry">
                        <mxPoint x="420" y="469" as="sourcePoint"/>
                    </mxGeometry>
                </mxCell>
                <mxCell id="x8IGzeiQERaqCFFXGE3a-47" style="edgeStyle=none;html=1;exitX=1;exitY=0.5;exitDx=0;exitDy=0;entryX=0;entryY=0.5;entryDx=0;entryDy=0;" parent="1" source="x8IGzeiQERaqCFFXGE3a-30" target="x8IGzeiQERaqCFFXGE3a-39" edge="1">
                    <mxGeometry relative="1" as="geometry">
                        <mxPoint x="420" y="469" as="sourcePoint"/>
                    </mxGeometry>
                </mxCell>
                <mxCell id="x8IGzeiQERaqCFFXGE3a-48" style="edgeStyle=none;html=1;entryX=0;entryY=0.5;entryDx=0;entryDy=0;exitX=1;exitY=0.5;exitDx=0;exitDy=0;" parent="1" source="x8IGzeiQERaqCFFXGE3a-30" target="x8IGzeiQERaqCFFXGE3a-43" edge="1">
                    <mxGeometry relative="1" as="geometry">
                        <mxPoint x="420" y="470" as="sourcePoint"/>
                    </mxGeometry>
                </mxCell>
                <mxCell id="x8IGzeiQERaqCFFXGE3a-50" style="edgeStyle=none;html=1;exitX=1;exitY=0.5;exitDx=0;exitDy=0;entryX=0;entryY=0;entryDx=0;entryDy=52.5;entryPerimeter=0;" parent="1" source="x8IGzeiQERaqCFFXGE3a-35" target="2vnoygbZwoWHeQbuiGc1-1" edge="1">
                    <mxGeometry relative="1" as="geometry">
                        <mxPoint x="780" y="430" as="targetPoint"/>
                    </mxGeometry>
                </mxCell>
                <mxCell id="x8IGzeiQERaqCFFXGE3a-52" style="edgeStyle=none;html=1;exitX=1;exitY=0.5;exitDx=0;exitDy=0;entryX=0;entryY=0;entryDx=0;entryDy=52.5;entryPerimeter=0;" parent="1" source="x8IGzeiQERaqCFFXGE3a-39" target="2vnoygbZwoWHeQbuiGc1-1" edge="1">
                    <mxGeometry relative="1" as="geometry">
                        <mxPoint x="800" y="430" as="targetPoint"/>
                    </mxGeometry>
                </mxCell>
                <mxCell id="x8IGzeiQERaqCFFXGE3a-54" style="edgeStyle=none;html=1;exitX=1;exitY=0.5;exitDx=0;exitDy=0;entryX=0;entryY=0;entryDx=0;entryDy=52.5;entryPerimeter=0;" parent="1" source="x8IGzeiQERaqCFFXGE3a-43" target="2vnoygbZwoWHeQbuiGc1-1" edge="1">
                    <mxGeometry relative="1" as="geometry">
                        <mxPoint x="790" y="450" as="targetPoint"/>
                    </mxGeometry>
                </mxCell>
                <mxCell id="2vnoygbZwoWHeQbuiGc1-2" style="html=1;entryX=1;entryY=0.5;entryDx=0;entryDy=0;rounded=1;exitX=0;exitY=0;exitDx=0;exitDy=52.5;exitPerimeter=0;" parent="1" source="2vnoygbZwoWHeQbuiGc1-1" target="OMXmORCDV6tAThFMvZb1-11" edge="1">
                    <mxGeometry relative="1" as="geometry"/>
                </mxCell>
                <mxCell id="2vnoygbZwoWHeQbuiGc1-1" value="DB" style="shape=cylinder3;whiteSpace=wrap;html=1;boundedLbl=1;backgroundOutline=1;size=15;" parent="1" vertex="1">
                    <mxGeometry x="800" y="380" width="100" height="140" as="geometry"/>
                </mxCell>
            </root>
        </mxGraphModel>
    </diagram>
</mxfile>